# xmcd
#
# Track frame offsets:
#	150
#	15126
#	30164
#	45106
#	58662
#	70400
#	85272
#	95432
#	109340
#	124408
#	139625
#	156548
#	169320
#
# Disc length: 2449 seconds
#
# Revision: 0
# Processed by: cddbd v1.5.2PL0 Copyright (c) Steve Scherf et al.
# Submitted via: EasyCDDAExtractor 15.3.0.1
#
DISCID=a4098f0d
DTITLE=Naiara Azevedo - Defendendo a mulherada - Coitado
DYEAR=2011
DGENRE=Sertanejo
TTITLE0=Coitado
TTITLE1=Você Você
TTITLE2=Caso Consumado
TTITLE3=Parte do Passado
TTITLE4=Vai Procurar Outra
TTITLE5=Exclusividade
TTITLE6=Fique aí com suas primas
TTITLE7=Se Liga
TTITLE8=Glacial
TTITLE9=Carapuça
TTITLE10=Me Enganar
TTITLE11=Se o Coração Dispara
TTITLE12=Vê Se Cresce
EXTD=
EXTT0=
EXTT1=
EXTT2=
EXTT3=
EXTT4=
EXTT5=
EXTT6=
EXTT7=
EXTT8=
EXTT9=
EXTT10=
EXTT11=
EXTT12=
PLAYORDER=
